<?xml version="1.0" encoding="iso-8859-1"?>
<!-- Generator: Adobe Illustrator 19.0.0, SVG Export Plug-In . SVG Version: 6.00 Build 0)  -->
<svg version="1.1" id="Capa_1" xmlns="http://www.w3.org/2000/svg" xmlns:xlink="http://www.w3.org/1999/xlink" x="0px" y="0px"
	 viewBox="0 0 480 480" style="enable-background:new 0 0 480 480;" xml:space="preserve">
<path style="fill:#7FCAC9;" d="M48,104h384v336H48V104z"/>
<g>
	<path style="fill:#195C85;" d="M144,168h192v64H144V168z"/>
	<path style="fill:#195C85;" d="M144,232h32v208h-32V232z"/>
	<path style="fill:#195C85;" d="M304,232h32v208h-32V232z"/>
</g>
<path style="fill:#238892;" d="M8,440h464v32H8V440z"/>
<path style="fill:#CFDFE8;" d="M152,40h176v128H152V40z"/>
<path style="fill:#195C85;" d="M120,8h240v32H120V8z"/>
<path style="fill:#238892;" d="M216,368h48v72h-48V368z"/>
<g>
	<path style="fill:#195C85;" d="M72,384h16v16H72V384z"/>
	<path style="fill:#195C85;" d="M104,384h16v16h-16V384z"/>
	<path style="fill:#195C85;" d="M72,352h16v16H72V352z"/>
	<path style="fill:#195C85;" d="M104,352h16v16h-16V352z"/>
	<path style="fill:#195C85;" d="M72,320h16v16H72V320z"/>
	<path style="fill:#195C85;" d="M104,320h16v16h-16V320z"/>
	<path style="fill:#195C85;" d="M72,288h16v16H72V288z"/>
	<path style="fill:#195C85;" d="M104,288h16v16h-16V288z"/>
	<path style="fill:#195C85;" d="M72,256h16v16H72V256z"/>
	<path style="fill:#195C85;" d="M104,256h16v16h-16V256z"/>
	<path style="fill:#195C85;" d="M72,224h16v16H72V224z"/>
	<path style="fill:#195C85;" d="M104,224h16v16h-16V224z"/>
	<path style="fill:#195C85;" d="M72,192h16v16H72V192z"/>
	<path style="fill:#195C85;" d="M104,192h16v16h-16V192z"/>
	<path style="fill:#195C85;" d="M72,160h16v16H72V160z"/>
	<path style="fill:#195C85;" d="M104,160h16v16h-16V160z"/>
	<path style="fill:#195C85;" d="M72,128h16v16H72V128z"/>
	<path style="fill:#195C85;" d="M104,128h16v16h-16V128z"/>
	<path style="fill:#195C85;" d="M360,384h16v16h-16V384z"/>
	<path style="fill:#195C85;" d="M392,384h16v16h-16V384z"/>
	<path style="fill:#195C85;" d="M360,352h16v16h-16V352z"/>
	<path style="fill:#195C85;" d="M392,352h16v16h-16V352z"/>
	<path style="fill:#195C85;" d="M360,320h16v16h-16V320z"/>
	<path style="fill:#195C85;" d="M392,320h16v16h-16V320z"/>
	<path style="fill:#195C85;" d="M360,288h16v16h-16V288z"/>
	<path style="fill:#195C85;" d="M232,328h16v16h-16V328z"/>
	<path style="fill:#195C85;" d="M200,328h16v16h-16V328z"/>
	<path style="fill:#195C85;" d="M264,328h16v16h-16V328z"/>
	<path style="fill:#195C85;" d="M232,296h16v16h-16V296z"/>
	<path style="fill:#195C85;" d="M200,296h16v16h-16V296z"/>
	<path style="fill:#195C85;" d="M264,296h16v16h-16V296z"/>
	<path style="fill:#195C85;" d="M232,264h16v16h-16V264z"/>
	<path style="fill:#195C85;" d="M200,264h16v16h-16V264z"/>
	<path style="fill:#195C85;" d="M264,264h16v16h-16V264z"/>
	<path style="fill:#195C85;" d="M232,128h16v16h-16V128z"/>
	<path style="fill:#195C85;" d="M200,128h16v16h-16V128z"/>
	<path style="fill:#195C85;" d="M264,128h16v16h-16V128z"/>
	<path style="fill:#195C85;" d="M232,96h16v16h-16V96z"/>
	<path style="fill:#195C85;" d="M200,96h16v16h-16V96z"/>
	<path style="fill:#195C85;" d="M264,96h16v16h-16V96z"/>
	<path style="fill:#195C85;" d="M232,64h16v16h-16V64z"/>
	<path style="fill:#195C85;" d="M200,64h16v16h-16V64z"/>
	<path style="fill:#195C85;" d="M264,64h16v16h-16V64z"/>
	<path style="fill:#195C85;" d="M392,288h16v16h-16V288z"/>
	<path style="fill:#195C85;" d="M360,256h16v16h-16V256z"/>
	<path style="fill:#195C85;" d="M392,256h16v16h-16V256z"/>
	<path style="fill:#195C85;" d="M360,224h16v16h-16V224z"/>
	<path style="fill:#195C85;" d="M392,224h16v16h-16V224z"/>
	<path style="fill:#195C85;" d="M360,192h16v16h-16V192z"/>
	<path style="fill:#195C85;" d="M392,192h16v16h-16V192z"/>
	<path style="fill:#195C85;" d="M360,160h16v16h-16V160z"/>
	<path style="fill:#195C85;" d="M392,160h16v16h-16V160z"/>
	<path style="fill:#195C85;" d="M360,128h16v16h-16V128z"/>
	<path style="fill:#195C85;" d="M392,128h16v16h-16V128z"/>
</g>
<g>
	<path style="fill:#D3843D;" d="M16,408h16v32H16V408z"/>
	<path style="fill:#D3843D;" d="M448,408h16v32h-16V408z"/>
</g>
<g>
	<path style="fill:#CFDFE8;" d="M168,192h16v16h-16V192z"/>
	<path style="fill:#CFDFE8;" d="M296,192h16v16h-16V192z"/>
</g>
<g>
	<ellipse style="fill:#55B56A;" cx="24" cy="376" rx="24" ry="40"/>
	<ellipse style="fill:#55B56A;" cx="456" cy="376" rx="24" ry="40"/>
</g>
<g>
	<path style="fill:#231F20;" d="M72,384h16v16H72V384z"/>
	<path style="fill:#231F20;" d="M104,384h16v16h-16V384z"/>
	<path style="fill:#231F20;" d="M72,352h16v16H72V352z"/>
	<path style="fill:#231F20;" d="M104,352h16v16h-16V352z"/>
	<path style="fill:#231F20;" d="M72,320h16v16H72V320z"/>
	<path style="fill:#231F20;" d="M104,320h16v16h-16V320z"/>
	<path style="fill:#231F20;" d="M72,288h16v16H72V288z"/>
	<path style="fill:#231F20;" d="M104,288h16v16h-16V288z"/>
	<path style="fill:#231F20;" d="M72,256h16v16H72V256z"/>
	<path style="fill:#231F20;" d="M104,256h16v16h-16V256z"/>
	<path style="fill:#231F20;" d="M72,224h16v16H72V224z"/>
	<path style="fill:#231F20;" d="M104,224h16v16h-16V224z"/>
	<path style="fill:#231F20;" d="M72,192h16v16H72V192z"/>
	<path style="fill:#231F20;" d="M104,192h16v16h-16V192z"/>
	<path style="fill:#231F20;" d="M72,160h16v16H72V160z"/>
	<path style="fill:#231F20;" d="M104,160h16v16h-16V160z"/>
	<path style="fill:#231F20;" d="M72,128h16v16H72V128z"/>
	<path style="fill:#231F20;" d="M104,128h16v16h-16V128z"/>
	<path style="fill:#231F20;" d="M360,384h16v16h-16V384z"/>
	<path style="fill:#231F20;" d="M392,384h16v16h-16V384z"/>
	<path style="fill:#231F20;" d="M360,352h16v16h-16V352z"/>
	<path style="fill:#231F20;" d="M392,352h16v16h-16V352z"/>
	<path style="fill:#231F20;" d="M360,320h16v16h-16V320z"/>
	<path style="fill:#231F20;" d="M392,320h16v16h-16V320z"/>
	<path style="fill:#231F20;" d="M360,288h16v16h-16V288z"/>
	<path style="fill:#231F20;" d="M232,328h16v16h-16V328z"/>
	<path style="fill:#231F20;" d="M200,328h16v16h-16V328z"/>
	<path style="fill:#231F20;" d="M264,328h16v16h-16V328z"/>
	<path style="fill:#231F20;" d="M232,296h16v16h-16V296z"/>
	<path style="fill:#231F20;" d="M200,296h16v16h-16V296z"/>
	<path style="fill:#231F20;" d="M264,296h16v16h-16V296z"/>
	<path style="fill:#231F20;" d="M232,264h16v16h-16V264z"/>
	<path style="fill:#231F20;" d="M200,264h16v16h-16V264z"/>
	<path style="fill:#231F20;" d="M264,264h16v16h-16V264z"/>
	<path style="fill:#231F20;" d="M232,128h16v16h-16V128z"/>
	<path style="fill:#231F20;" d="M200,128h16v16h-16V128z"/>
	<path style="fill:#231F20;" d="M264,128h16v16h-16V128z"/>
	<path style="fill:#231F20;" d="M232,96h16v16h-16V96z"/>
	<path style="fill:#231F20;" d="M200,96h16v16h-16V96z"/>
	<path style="fill:#231F20;" d="M264,96h16v16h-16V96z"/>
	<path style="fill:#231F20;" d="M232,64h16v16h-16V64z"/>
	<path style="fill:#231F20;" d="M200,64h16v16h-16V64z"/>
	<path style="fill:#231F20;" d="M264,64h16v16h-16V64z"/>
	<path style="fill:#231F20;" d="M392,288h16v16h-16V288z"/>
	<path style="fill:#231F20;" d="M360,256h16v16h-16V256z"/>
	<path style="fill:#231F20;" d="M392,256h16v16h-16V256z"/>
	<path style="fill:#231F20;" d="M360,224h16v16h-16V224z"/>
	<path style="fill:#231F20;" d="M392,224h16v16h-16V224z"/>
	<path style="fill:#231F20;" d="M360,192h16v16h-16V192z"/>
	<path style="fill:#231F20;" d="M392,192h16v16h-16V192z"/>
	<path style="fill:#231F20;" d="M360,160h16v16h-16V160z"/>
	<path style="fill:#231F20;" d="M392,160h16v16h-16V160z"/>
	<path style="fill:#231F20;" d="M360,128h16v16h-16V128z"/>
	<path style="fill:#231F20;" d="M392,128h16v16h-16V128z"/>
	<path style="fill:#231F20;" d="M480,376c0-22.808-10.32-40-24-40c-6.663,0.39-12.68,4.114-16,9.904V104c0-4.418-3.582-8-8-8h-96V48
		h24c4.418,0,8-3.582,8-8V8c0-4.418-3.582-8-8-8H120c-4.418,0-8,3.582-8,8v32c0,4.418,3.582,8,8,8h24v48H48c-4.418,0-8,3.582-8,8
		v241.904c-3.32-5.79-9.337-9.514-16-9.904c-13.68,0-24,17.192-24,40c0,18.056,6.512,32.44,16,37.712V432H8c-4.418,0-8,3.582-8,8v32
		c0,4.418,3.582,8,8,8h464c4.418,0,8-3.582,8-8v-32c0-4.418-3.582-8-8-8h-8v-18.288C473.488,408.44,480,394.056,480,376z
		 M440,406.096c2.038,3.126,4.777,5.734,8,7.616V432h-8V406.096z M424,112v320h-80V168c0-4.418-3.582-8-8-8v-48H424z M128,32V16h224
		v16H128z M152,224v-48h176v48H152z M328,240v192h-16V240H328z M264,360h-48c-4.418,0-8,3.582-8,8v64h-24V240h112v192h-24v-64
		C272,363.582,268.418,360,264,360z M256,376v56h-32v-56H256z M168,240v192h-16V240H168z M160,160V48h160v112H160z M56,112h88v48
		c-4.418,0-8,3.582-8,8v264H56V112z M40,406.096V432h-8v-18.288C35.223,411.83,37.962,409.222,40,406.096z M24,352
		c1.992,0,8,8.512,8,24c0,15.488-6.008,24-8,24s-8-8.512-8-24C16,360.512,22.008,352,24,352z M464,464H16v-16h448V464z M456,400
		c-1.992,0-8-8.512-8-24c0-15.488,6.008-24,8-24s8,8.512,8,24C464,391.488,457.992,400,456,400z"/>
	<path style="fill:#231F20;" d="M168,192h16v16h-16V192z"/>
	<path style="fill:#231F20;" d="M296,192h16v16h-16V192z"/>
</g>
<g>
</g>
<g>
</g>
<g>
</g>
<g>
</g>
<g>
</g>
<g>
</g>
<g>
</g>
<g>
</g>
<g>
</g>
<g>
</g>
<g>
</g>
<g>
</g>
<g>
</g>
<g>
</g>
<g>
</g>
</svg>
